<mxfile host="app.diagrams.net" agent="Mozilla/5.0 (Windows NT 10.0; Win64; x64) AppleWebKit/537.36 (KHTML, like Gecko) Chrome/135.0.0.0 Safari/537.36" version="26.2.13">
  <diagram name="Page-1" id="70Go7ca_cRRz6_zXbVRr">
    <mxGraphModel grid="1" page="1" gridSize="10" guides="1" tooltips="1" connect="1" arrows="1" fold="1" pageScale="1" pageWidth="827" pageHeight="1169" math="0" shadow="0">
      <root>
        <mxCell id="0" />
        <mxCell id="1" parent="0" />
        <mxCell id="41D1iN0N6tY1A2CeWGYv-5" value="" style="edgeStyle=orthogonalEdgeStyle;rounded=0;orthogonalLoop=1;jettySize=auto;html=1;" edge="1" parent="1" source="41D1iN0N6tY1A2CeWGYv-1" target="41D1iN0N6tY1A2CeWGYv-4">
          <mxGeometry relative="1" as="geometry" />
        </mxCell>
        <mxCell id="41D1iN0N6tY1A2CeWGYv-1" value="" style="shape=waypoint;sketch=0;fillStyle=solid;size=6;pointerEvents=1;points=[];fillColor=none;resizable=0;rotatable=0;perimeter=centerPerimeter;snapToPoint=1;" vertex="1" parent="1">
          <mxGeometry x="200" y="-1140" width="20" height="20" as="geometry" />
        </mxCell>
        <mxCell id="41D1iN0N6tY1A2CeWGYv-7" value="" style="edgeStyle=orthogonalEdgeStyle;rounded=0;orthogonalLoop=1;jettySize=auto;html=1;" edge="1" parent="1" source="41D1iN0N6tY1A2CeWGYv-4" target="41D1iN0N6tY1A2CeWGYv-6">
          <mxGeometry relative="1" as="geometry" />
        </mxCell>
        <mxCell id="41D1iN0N6tY1A2CeWGYv-4" value="&lt;pre style=&quot;font-family: Menlo, &amp;quot;Roboto Mono&amp;quot;, &amp;quot;Courier New&amp;quot;, Courier, monospace, Inter, sans-serif; overflow: auto; padding: 9.144px 13.716px; text-wrap-mode: wrap; word-break: break-all; font-size: 12.573px; margin-top: 0px !important; margin-bottom: 0px !important;&quot;&gt; Saisir les Données&lt;/pre&gt;" style="whiteSpace=wrap;html=1;fillColor=none;sketch=0;fillStyle=solid;pointerEvents=1;resizable=0;align=center;" vertex="1" parent="1">
          <mxGeometry x="150" y="-1060" width="120" height="60" as="geometry" />
        </mxCell>
        <mxCell id="41D1iN0N6tY1A2CeWGYv-9" value="" style="edgeStyle=orthogonalEdgeStyle;rounded=0;orthogonalLoop=1;jettySize=auto;html=1;" edge="1" parent="1" source="41D1iN0N6tY1A2CeWGYv-6" target="41D1iN0N6tY1A2CeWGYv-8">
          <mxGeometry relative="1" as="geometry" />
        </mxCell>
        <mxCell id="41D1iN0N6tY1A2CeWGYv-6" value="&lt;pre style=&quot;font-family: Menlo, &amp;quot;Roboto Mono&amp;quot;, &amp;quot;Courier New&amp;quot;, Courier, monospace, Inter, sans-serif; overflow: auto; padding: 9.144px 13.716px; text-wrap-mode: wrap; word-break: break-all; margin-top: 0px !important; margin-bottom: 0px !important;&quot;&gt;&lt;font style=&quot;font-size: 9px;&quot;&gt;Données valides ?&lt;/font&gt;&lt;/pre&gt;" style="whiteSpace=wrap;html=1;fillColor=none;sketch=0;fillStyle=solid;pointerEvents=1;resizable=0;align=center;" vertex="1" parent="1">
          <mxGeometry x="363" y="-990" width="120" height="60" as="geometry" />
        </mxCell>
        <mxCell id="41D1iN0N6tY1A2CeWGYv-13" value="" style="edgeStyle=orthogonalEdgeStyle;rounded=0;orthogonalLoop=1;jettySize=auto;html=1;" edge="1" parent="1" source="41D1iN0N6tY1A2CeWGYv-8" target="41D1iN0N6tY1A2CeWGYv-12">
          <mxGeometry relative="1" as="geometry" />
        </mxCell>
        <mxCell id="41D1iN0N6tY1A2CeWGYv-8" value="" style="rhombus;whiteSpace=wrap;html=1;fillColor=none;sketch=0;fillStyle=solid;pointerEvents=1;resizable=0;" vertex="1" parent="1">
          <mxGeometry x="383" y="-900" width="80" height="80" as="geometry" />
        </mxCell>
        <mxCell id="41D1iN0N6tY1A2CeWGYv-10" value="" style="endArrow=classic;html=1;rounded=0;exitX=0;exitY=0.5;exitDx=0;exitDy=0;entryX=0.5;entryY=1;entryDx=0;entryDy=0;" edge="1" parent="1" source="41D1iN0N6tY1A2CeWGYv-8" target="41D1iN0N6tY1A2CeWGYv-4">
          <mxGeometry width="50" height="50" relative="1" as="geometry">
            <mxPoint x="423" y="-860" as="sourcePoint" />
            <mxPoint x="473" y="-910" as="targetPoint" />
            <Array as="points">
              <mxPoint x="303" y="-860" />
              <mxPoint x="210" y="-860" />
            </Array>
          </mxGeometry>
        </mxCell>
        <mxCell id="41D1iN0N6tY1A2CeWGYv-11" value="Non" style="text;html=1;align=center;verticalAlign=middle;whiteSpace=wrap;rounded=0;" vertex="1" parent="1">
          <mxGeometry x="253" y="-850" width="60" height="30" as="geometry" />
        </mxCell>
        <mxCell id="41D1iN0N6tY1A2CeWGYv-16" value="" style="edgeStyle=orthogonalEdgeStyle;rounded=0;orthogonalLoop=1;jettySize=auto;html=1;" edge="1" parent="1" source="41D1iN0N6tY1A2CeWGYv-12" target="41D1iN0N6tY1A2CeWGYv-15">
          <mxGeometry relative="1" as="geometry" />
        </mxCell>
        <mxCell id="41D1iN0N6tY1A2CeWGYv-12" value="&lt;pre style=&quot;font-family: Menlo, &amp;quot;Roboto Mono&amp;quot;, &amp;quot;Courier New&amp;quot;, Courier, monospace, Inter, sans-serif; overflow: auto; padding: 9.144px 13.716px; text-wrap-mode: wrap; word-break: break-all; text-align: start; margin-top: 0px !important; margin-bottom: 0px !important;&quot;&gt;&lt;font style=&quot;font-size: 10px;&quot;&gt;Vérifier Taille &lt;/font&gt;&lt;/pre&gt;" style="whiteSpace=wrap;html=1;fillColor=none;sketch=0;fillStyle=solid;pointerEvents=1;resizable=0;" vertex="1" parent="1">
          <mxGeometry x="363" y="-770" width="120" height="60" as="geometry" />
        </mxCell>
        <mxCell id="41D1iN0N6tY1A2CeWGYv-14" value="Oui" style="text;html=1;align=center;verticalAlign=middle;whiteSpace=wrap;rounded=0;" vertex="1" parent="1">
          <mxGeometry x="423" y="-800" width="60" height="30" as="geometry" />
        </mxCell>
        <mxCell id="41D1iN0N6tY1A2CeWGYv-18" value="" style="edgeStyle=orthogonalEdgeStyle;rounded=0;orthogonalLoop=1;jettySize=auto;html=1;" edge="1" parent="1" source="41D1iN0N6tY1A2CeWGYv-15" target="41D1iN0N6tY1A2CeWGYv-17">
          <mxGeometry relative="1" as="geometry" />
        </mxCell>
        <mxCell id="41D1iN0N6tY1A2CeWGYv-15" value="&lt;pre style=&quot;font-family: Menlo, &amp;quot;Roboto Mono&amp;quot;, &amp;quot;Courier New&amp;quot;, Courier, monospace, Inter, sans-serif; overflow: auto; padding: 9.144px 13.716px; text-wrap-mode: wrap; word-break: break-all; text-align: start; margin-top: 0px !important; margin-bottom: 0px !important;&quot;&gt;&lt;font style=&quot;font-size: 10px;&quot;&gt;[≤ 25 villes ?]&lt;/font&gt;&lt;/pre&gt;" style="whiteSpace=wrap;html=1;fillColor=none;sketch=0;fillStyle=solid;pointerEvents=1;resizable=0;" vertex="1" parent="1">
          <mxGeometry x="563" y="-770" width="120" height="60" as="geometry" />
        </mxCell>
        <mxCell id="41D1iN0N6tY1A2CeWGYv-17" value="" style="rhombus;whiteSpace=wrap;html=1;fillColor=none;sketch=0;fillStyle=solid;pointerEvents=1;resizable=0;" vertex="1" parent="1">
          <mxGeometry x="583" y="-670" width="80" height="80" as="geometry" />
        </mxCell>
        <mxCell id="41D1iN0N6tY1A2CeWGYv-20" value="" style="endArrow=classic;html=1;rounded=0;exitX=0;exitY=0.5;exitDx=0;exitDy=0;" edge="1" parent="1" source="41D1iN0N6tY1A2CeWGYv-17">
          <mxGeometry width="50" height="50" relative="1" as="geometry">
            <mxPoint x="413" y="-580" as="sourcePoint" />
            <mxPoint x="503" y="-630" as="targetPoint" />
          </mxGeometry>
        </mxCell>
        <mxCell id="41D1iN0N6tY1A2CeWGYv-21" value="Non" style="text;html=1;align=center;verticalAlign=middle;whiteSpace=wrap;rounded=0;" vertex="1" parent="1">
          <mxGeometry x="523" y="-660" width="60" height="30" as="geometry" />
        </mxCell>
        <mxCell id="41D1iN0N6tY1A2CeWGYv-22" value="" style="shape=sumEllipse;perimeter=ellipsePerimeter;whiteSpace=wrap;html=1;backgroundOutline=1;" vertex="1" parent="1">
          <mxGeometry x="493" y="-640" width="20" height="20" as="geometry" />
        </mxCell>
        <mxCell id="41D1iN0N6tY1A2CeWGYv-23" value="" style="endArrow=classic;html=1;rounded=0;exitX=0.5;exitY=1;exitDx=0;exitDy=0;entryX=1;entryY=0.5;entryDx=0;entryDy=0;" edge="1" parent="1" source="41D1iN0N6tY1A2CeWGYv-17" target="41D1iN0N6tY1A2CeWGYv-24">
          <mxGeometry width="50" height="50" relative="1" as="geometry">
            <mxPoint x="413" y="-510" as="sourcePoint" />
            <mxPoint x="533" y="-540" as="targetPoint" />
            <Array as="points">
              <mxPoint x="623" y="-545" />
            </Array>
          </mxGeometry>
        </mxCell>
        <mxCell id="41D1iN0N6tY1A2CeWGYv-27" value="" style="edgeStyle=orthogonalEdgeStyle;rounded=0;orthogonalLoop=1;jettySize=auto;html=1;" edge="1" parent="1" source="41D1iN0N6tY1A2CeWGYv-24" target="41D1iN0N6tY1A2CeWGYv-26">
          <mxGeometry relative="1" as="geometry" />
        </mxCell>
        <mxCell id="41D1iN0N6tY1A2CeWGYv-24" value="&lt;pre style=&quot;font-family: Menlo, &amp;quot;Roboto Mono&amp;quot;, &amp;quot;Courier New&amp;quot;, Courier, monospace, Inter, sans-serif; overflow: auto; padding: 9.144px 13.716px; text-wrap-mode: wrap; word-break: break-all; text-align: start; margin-top: 0px !important; margin-bottom: 0px !important;&quot;&gt;&lt;font style=&quot;font-size: 10px;&quot;&gt;Résoudre le PVC  &lt;/font&gt;&lt;/pre&gt;" style="rounded=0;whiteSpace=wrap;html=1;" vertex="1" parent="1">
          <mxGeometry x="433" y="-570" width="100" height="50" as="geometry" />
        </mxCell>
        <mxCell id="41D1iN0N6tY1A2CeWGYv-25" value="oui" style="text;html=1;align=center;verticalAlign=middle;whiteSpace=wrap;rounded=0;" vertex="1" parent="1">
          <mxGeometry x="623" y="-580" width="60" height="30" as="geometry" />
        </mxCell>
        <mxCell id="41D1iN0N6tY1A2CeWGYv-29" value="" style="edgeStyle=orthogonalEdgeStyle;rounded=0;orthogonalLoop=1;jettySize=auto;html=1;" edge="1" parent="1" source="41D1iN0N6tY1A2CeWGYv-26" target="41D1iN0N6tY1A2CeWGYv-28">
          <mxGeometry relative="1" as="geometry" />
        </mxCell>
        <mxCell id="41D1iN0N6tY1A2CeWGYv-26" value="&lt;pre style=&quot;font-family: Menlo, &amp;quot;Roboto Mono&amp;quot;, &amp;quot;Courier New&amp;quot;, Courier, monospace, Inter, sans-serif; overflow: auto; padding: 9.144px 13.716px; text-wrap-mode: wrap; word-break: break-all; text-align: start; margin-top: 0px !important; margin-bottom: 0px !important;&quot;&gt;&lt;font style=&quot;font-size: 10px;&quot;&gt; Générer Visualisation &lt;/font&gt;&lt;/pre&gt;" style="whiteSpace=wrap;html=1;rounded=0;" vertex="1" parent="1">
          <mxGeometry x="263" y="-577.5" width="100" height="65" as="geometry" />
        </mxCell>
        <mxCell id="41D1iN0N6tY1A2CeWGYv-28" value="&lt;pre style=&quot;font-family: Menlo, &amp;quot;Roboto Mono&amp;quot;, &amp;quot;Courier New&amp;quot;, Courier, monospace, Inter, sans-serif; overflow: auto; padding: 9.144px 13.716px; text-wrap-mode: wrap; word-break: break-all; text-align: start; margin-top: 0px !important; margin-bottom: 0px !important;&quot;&gt;&lt;font style=&quot;font-size: 11px;&quot;&gt;Afficher Résultats&lt;/font&gt;&lt;/pre&gt;" style="whiteSpace=wrap;html=1;rounded=0;" vertex="1" parent="1">
          <mxGeometry x="238" y="-470" width="150" height="50" as="geometry" />
        </mxCell>
        <mxCell id="41D1iN0N6tY1A2CeWGYv-30" value="" style="verticalLabelPosition=bottom;verticalAlign=top;html=1;shape=mxgraph.basic.donut;dx=8.8;" vertex="1" parent="1">
          <mxGeometry x="503" y="-460" width="30" height="30" as="geometry" />
        </mxCell>
        <mxCell id="41D1iN0N6tY1A2CeWGYv-31" value="" style="endArrow=classic;html=1;rounded=0;exitX=1;exitY=0.5;exitDx=0;exitDy=0;" edge="1" parent="1" source="41D1iN0N6tY1A2CeWGYv-28">
          <mxGeometry width="50" height="50" relative="1" as="geometry">
            <mxPoint x="413" y="-470" as="sourcePoint" />
            <mxPoint x="503" y="-442" as="targetPoint" />
          </mxGeometry>
        </mxCell>
      </root>
    </mxGraphModel>
  </diagram>
</mxfile>
